<?xml version="1.0" encoding="UTF-8" standalone="yes"?>
<svg width="46" height="46" viewBox="0 0 46 46" fill="none" version="1.2" baseProfile="tiny-ps" xmlns="http://www.w3.org/2000/svg">
  <title>bimi-svg-tiny-12-ps</title>
  <rect width="46" height="46" fill="#F5F5F5"/>
  <path d="M15.4638 26.8074C13.9929 26.8074 12.8048 28.0068 12.8048 29.4664C12.8048 30.9261 14.0042 32.1367 15.4638 32.1367C16.9347 32.1367 18.1228 30.9374 18.1228 29.4664C18.1228 27.9955 16.9347 26.8074 15.4638 26.8074Z" fill="#FDB812"/>
  <path d="M8.01911 26.8074C6.54817 26.8074 5.36011 28.0068 5.36011 29.4664C5.36011 30.9261 6.55949 32.1367 8.01911 32.1367C9.49004 32.1367 10.6781 30.9374 10.6781 29.4664C10.6781 27.9955 9.49004 26.8074 8.01911 26.8074Z" fill="#FF2938"/>
  <path d="M22.9092 26.8074C21.4382 26.8074 20.2502 28.0068 20.2502 29.4664C20.2502 30.9261 21.4496 32.1367 22.9092 32.1367C24.3801 32.1367 25.5682 30.9374 25.5682 29.4664C25.5682 27.9955 24.3801 26.8074 22.9092 26.8074Z" fill="#00B057"/>
  <path d="M37.7998 26.8074C36.3289 26.8074 35.1408 28.0068 35.1408 29.4664C35.1408 30.9261 36.3402 32.1367 37.7998 32.1367C39.2707 32.1367 40.4588 30.9374 40.4588 29.4664C40.4588 27.9955 39.2707 26.8074 37.7998 26.8074Z" fill="#00AAE0"/>
  <path d="M30.3545 26.8074C28.8835 26.8074 27.6841 28.0068 27.6841 29.4664C27.6841 30.9374 28.8835 32.1254 30.3545 32.1254C31.8254 32.1254 33.0135 30.9261 33.0135 29.4664C33.0135 28.0068 31.8254 26.8074 30.3545 26.8074Z" fill="#AF38B1"/>
  <path d="M10.2367 19.2605C10.2367 18.0159 9.29754 17.0767 8.05291 17.0767C6.80827 17.0767 5.86913 18.0159 5.86913 19.2605C5.86913 20.5051 6.80827 21.4443 8.05291 21.4443C9.29754 21.4443 10.2367 20.5051 10.2367 19.2605ZM5.13367 19.2831C5.13367 17.6764 6.28779 16.4318 7.78135 16.2734C9.60305 16.0697 11.1079 17.4841 11.1079 19.3171V21.9308C11.1079 22.2024 10.9269 22.3947 10.6553 22.3947C10.3725 22.3947 10.2027 22.2024 10.2027 21.9308V21.1501H10.1575C9.80671 21.7724 9.10519 22.3155 8.06422 22.3155C6.45751 22.3155 5.13367 21.0143 5.13367 19.2831Z" fill="#595A5A"/>
  <path d="M17.6596 19.2605C17.6596 18.0159 16.7204 17.0767 15.4758 17.0767C14.2312 17.0767 13.292 18.0159 13.292 19.2605C13.292 20.5051 14.2312 21.4443 15.4758 21.4443C16.7204 21.4443 17.6596 20.5051 17.6596 19.2605ZM13.7559 24.273C13.5183 24.1599 13.4052 23.9449 13.4957 23.6959C13.5862 23.4357 13.8125 23.3339 14.0501 23.447C14.4574 23.6507 14.9666 23.7865 15.5097 23.7865C16.8562 23.7865 17.6709 22.9492 17.6709 21.5348V21.1501H17.6256C17.2749 21.7724 16.5733 22.3155 15.5324 22.3155C13.9256 22.3155 12.6018 21.0143 12.6018 19.2831C12.6018 17.6764 13.7559 16.4318 15.2495 16.2734C17.0712 16.0697 18.5761 17.4841 18.5761 19.3171V21.4782C18.5761 23.3791 17.3993 24.6577 15.4758 24.6577C14.8874 24.6577 14.299 24.5446 13.7559 24.273Z" fill="#595A5A"/>
  <path d="M25.0932 19.2605C25.0932 18.0158 24.1541 17.0767 22.9094 17.0767C21.6648 17.0767 20.7257 18.0158 20.7257 19.2605C20.7257 20.5051 21.6648 21.4443 22.9094 21.4443C24.1541 21.4443 25.0932 20.5051 25.0932 19.2605ZM19.7979 19.2605C19.7979 17.5293 21.1783 16.2281 22.8981 16.2281C24.6293 16.2281 25.9984 17.5293 25.9984 19.2605C25.9984 20.9917 24.618 22.2929 22.8981 22.2929C21.1783 22.2929 19.7979 20.9917 19.7979 19.2605Z" fill="#595A5A"/>
  <path d="M32.5156 19.2605C32.5156 18.0158 31.5765 17.0767 30.3318 17.0767C29.0872 17.0767 28.148 18.0158 28.148 19.2605C28.148 20.5051 29.0872 21.4443 30.3318 21.4443C31.5765 21.4443 32.5156 20.5051 32.5156 19.2605ZM27.4239 19.2831C27.4239 17.5519 28.7364 16.2507 30.3544 16.2507C31.3954 16.2507 32.0969 16.7938 32.4477 17.4162H32.493V14.3272C32.493 14.0556 32.674 13.8633 32.9456 13.8633C33.2284 13.8633 33.3981 14.0556 33.3981 14.3272V19.2492C33.3981 21.0822 31.8933 22.4965 30.0716 22.2929C28.578 22.1345 27.4239 20.8898 27.4239 19.2831Z" fill="#595A5A"/>
  <path d="M39.9499 19.2605C39.9499 18.0159 39.0108 17.0767 37.7661 17.0767C36.5215 17.0767 35.5824 18.0159 35.5824 19.2605C35.5824 20.5051 36.5215 21.4443 37.7661 21.4443C39.0108 21.4443 39.9499 20.5051 39.9499 19.2605ZM34.8922 19.2831C34.8922 17.6764 36.0463 16.4318 37.5398 16.2734C39.3615 16.0697 40.8664 17.4841 40.8664 19.3171V21.9308C40.8664 22.2024 40.6854 22.3947 40.4138 22.3947C40.1309 22.3947 39.9612 22.2024 39.9612 21.9308V21.1501H39.916C39.5652 21.7724 38.8637 22.3155 37.8227 22.3155C36.216 22.3155 34.8922 21.0143 34.8922 19.2831Z" fill="#595A5A"/>
</svg>